<svg width="20" height="20" viewBox="0 0 20 20" fill="none" xmlns="http://www.w3.org/2000/svg">
    <path d="M16.9444 14.2889V14.1612C16.9433 13.2414 16.5772 12.3595 15.9262 11.7091C15.2753 11.0587 14.3928 10.6928 13.4722 10.6917H10.6944V9.93534C11.7246 9.76135 12.6517 9.20701 13.2921 8.38218C13.9325 7.55735 14.2394 6.52223 14.1521 5.48194C14.0647 4.44165 13.5894 3.47212 12.8204 2.76548C12.0514 2.05884 11.0447 1.66666 9.99999 1.66666C8.95524 1.66666 7.94861 2.05884 7.1796 2.76548C6.41058 3.47212 5.93529 4.44165 5.84792 5.48194C5.76055 6.52223 6.06748 7.55735 6.70788 8.38218C7.34828 9.20701 8.27541 9.76135 9.30555 9.93534V10.6917H6.52777C5.60722 10.6928 4.72469 11.0587 4.07376 11.7091C3.42283 12.3595 3.05665 13.2414 3.05555 14.1612V14.2889C2.59221 14.4526 2.20169 14.7747 1.95303 15.1983C1.70436 15.6218 1.61356 16.1196 1.69666 16.6036C1.77977 17.0876 2.03143 17.5267 2.40717 17.8432C2.78292 18.1597 3.25854 18.3333 3.74999 18.3333C4.24144 18.3333 4.71707 18.1597 5.09281 17.8432C5.46855 17.5267 5.72022 17.0876 5.80332 16.6036C5.88643 16.1196 5.79562 15.6218 5.54696 15.1983C5.29829 14.7747 4.90778 14.4526 4.44444 14.2889V14.1612C4.44444 13.6091 4.66393 13.0796 5.05463 12.6892C5.44533 12.2988 5.97524 12.0795 6.52777 12.0795H9.30555V14.2889C8.8422 14.4526 8.45169 14.7747 8.20303 15.1983C7.95436 15.6218 7.86356 16.1196 7.94666 16.6036C8.02977 17.0876 8.28143 17.5267 8.65717 17.8432C9.03291 18.1597 9.50854 18.3333 9.99999 18.3333C10.4914 18.3333 10.9671 18.1597 11.3428 17.8432C11.7186 17.5267 11.9702 17.0876 12.0533 16.6036C12.1364 16.1196 12.0456 15.6218 11.797 15.1983C11.5483 14.7747 11.1578 14.4526 10.6944 14.2889V12.0795H13.4722C14.0247 12.0795 14.5546 12.2988 14.9453 12.6892C15.3361 13.0796 15.5555 13.6091 15.5555 14.1612V14.2889C15.0922 14.4526 14.7017 14.7747 14.453 15.1983C14.2044 15.6218 14.1136 16.1196 14.1967 16.6036C14.2798 17.0876 14.5314 17.5267 14.9072 17.8432C15.2829 18.1597 15.7585 18.3333 16.25 18.3333C16.7414 18.3333 17.2171 18.1597 17.5928 17.8432C17.9685 17.5267 18.2202 17.0876 18.3033 16.6036C18.3864 16.1196 18.2956 15.6218 18.047 15.1983C17.7983 14.7747 17.4078 14.4526 16.9444 14.2889Z" fill="#1C925F"/>
    </svg>
    