<svg width="20" height="20" viewBox="0 0 20 20" fill="none" xmlns="http://www.w3.org/2000/svg">
<g clip-path="url(#clip0_228_225)">
<path d="M18.1147 13.6652C17.8348 12.8402 17.3037 12.1234 16.5958 11.6154C15.8879 11.1073 15.0388 10.8335 14.1674 10.8322H10.8335V9.92893C12.0699 9.72 13.1826 9.05436 13.9512 8.06392C14.7198 7.07347 15.0882 5.83051 14.9833 4.58134C14.8785 3.33218 14.308 2.16798 13.385 1.31945C12.4621 0.470925 11.2539 0 10 0C8.74609 0 7.53793 0.470925 6.61495 1.31945C5.69197 2.16798 5.12153 3.33218 5.01667 4.58134C4.91181 5.83051 5.28018 7.07347 6.04879 8.06392C6.8174 9.05436 7.93015 9.72 9.16653 9.92893V10.8322H5.83263C4.96123 10.8335 4.11207 11.1073 3.4042 11.6154C2.69632 12.1234 2.1652 12.8402 1.88529 13.6652C1.17025 14.01 0.601774 14.5987 0.282141 15.3252C-0.0374909 16.0517 -0.0872994 16.8684 0.141677 17.6283C0.370653 18.3883 0.863383 19.0416 1.53122 19.4707C2.19906 19.8999 2.99817 20.0767 3.78478 19.9694C4.57139 19.862 5.29386 19.4776 5.82223 18.8852C6.3506 18.2928 6.65017 17.5314 6.66705 16.7379C6.68393 15.9444 6.41701 15.1709 5.91431 14.5566C5.41161 13.9423 4.70614 13.5275 3.9248 13.3869C4.15912 13.1091 4.4512 12.8857 4.78069 12.7323C5.11018 12.5789 5.46916 12.4992 5.83263 12.4986H9.16653V13.4377C8.38084 13.6405 7.69612 14.1228 7.2407 14.7942C6.78528 15.4656 6.59043 16.28 6.69267 17.0848C6.79492 17.8895 7.18724 18.6294 7.7961 19.1656C8.40496 19.7019 9.18855 19.9978 10 19.9978C10.8115 19.9978 11.595 19.7019 12.2039 19.1656C12.8128 18.6294 13.2051 17.8895 13.3073 17.0848C13.4096 16.28 13.2147 15.4656 12.7593 14.7942C12.3039 14.1228 11.6192 13.6405 10.8335 13.4377V12.4986H14.1674C14.5306 12.4989 14.8895 12.5782 15.219 12.7312C15.5485 12.8841 15.8406 13.107 16.0752 13.3844C15.2939 13.525 14.5884 13.9398 14.0857 14.5541C13.583 15.1684 13.3161 15.9419 13.333 16.7354C13.3498 17.5289 13.6494 18.2903 14.1778 18.8827C14.7061 19.4751 15.4286 19.8595 16.2152 19.9669C17.0018 20.0742 17.8009 19.8974 18.4688 19.4682C19.1366 19.0391 19.6293 18.3858 19.8583 17.6258C20.0873 16.8659 20.0375 16.0492 19.7179 15.3227C19.3982 14.5962 18.8298 14.0075 18.1147 13.6627V13.6652ZM6.6661 4.99949C6.6661 4.3403 6.86163 3.6959 7.22797 3.1478C7.5943 2.5997 8.11498 2.17251 8.72417 1.92025C9.33336 1.66798 10.0037 1.60198 10.6504 1.73058C11.2971 1.85919 11.8912 2.17662 12.3574 2.64274C12.8237 3.10886 13.1412 3.70274 13.2698 4.34927C13.3985 4.99579 13.3325 5.66594 13.0801 6.27496C12.8278 6.88397 12.4005 7.40451 11.8522 7.77074C11.304 8.13697 10.6594 8.33244 10 8.33244C9.1158 8.33244 8.26781 7.98129 7.64258 7.35624C7.01735 6.73119 6.6661 5.88345 6.6661 4.99949ZM4.99915 16.6648C4.99915 16.9944 4.90139 17.3166 4.71822 17.5907C4.53505 17.8647 4.27471 18.0783 3.97012 18.2044C3.66552 18.3306 3.33035 18.3636 3.007 18.2993C2.68364 18.235 2.38662 18.0763 2.15349 17.8432C1.92036 17.6101 1.7616 17.3132 1.69728 16.9899C1.63296 16.6667 1.66598 16.3316 1.79214 16.0271C1.91831 15.7226 2.13197 15.4623 2.4061 15.2792C2.68022 15.0961 3.00251 14.9983 3.3322 14.9983C3.77431 14.9983 4.1983 15.1739 4.51091 15.4864C4.82353 15.799 4.99915 16.2228 4.99915 16.6648ZM11.667 16.6648C11.667 16.9944 11.5692 17.3166 11.386 17.5907C11.2029 17.8647 10.9425 18.0783 10.6379 18.2044C10.3333 18.3306 9.99815 18.3636 9.6748 18.2993C9.35144 18.235 9.05442 18.0763 8.82129 17.8432C8.58816 17.6101 8.4294 17.3132 8.36508 16.9899C8.30076 16.6667 8.33377 16.3316 8.45994 16.0271C8.58611 15.7226 8.79976 15.4623 9.07389 15.2792C9.34802 15.0961 9.67031 14.9983 10 14.9983C10.4421 14.9983 10.8661 15.1739 11.1787 15.4864C11.4913 15.799 11.667 16.2228 11.667 16.6648ZM16.6678 18.3313C16.3381 18.3313 16.0158 18.2336 15.7417 18.0504C15.4676 17.8673 15.2539 17.6071 15.1277 17.3026C15.0016 16.998 14.9686 16.663 15.0329 16.3397C15.0972 16.0164 15.256 15.7195 15.4891 15.4864C15.7222 15.2534 16.0192 15.0947 16.3426 15.0304C16.6659 14.9661 17.0011 14.9991 17.3057 15.1252C17.6103 15.2513 17.8706 15.4649 18.0538 15.739C18.237 16.013 18.3347 16.3352 18.3347 16.6648C18.3347 17.1068 18.1591 17.5307 17.8465 17.8432C17.5339 18.1557 17.1099 18.3313 16.6678 18.3313Z" fill="#4B4E59"/>
</g>
<defs>
<clipPath id="clip0_228_225">
<rect width="20" height="20" fill="white"/>
</clipPath>
</defs>
</svg>
