<svg width="36" height="36" viewBox="0 0 36 36" fill="none" xmlns="http://www.w3.org/2000/svg">
<rect width="36" height="36" rx="18" fill="#EFFAF6"/>
<path d="M27.3577 21.8093C27.6782 21.9045 28 21.6643 28 21.33V20.2846C28 20.1082 27.907 19.9448 27.7553 19.8547L19.8237 15.1453C19.672 15.0552 19.5789 14.8918 19.5789 14.7154V9.5C19.5789 8.67 18.8737 8 18 8C17.1263 8 16.4211 8.67 16.4211 9.5V14.7154C16.4211 14.8918 16.328 15.0552 16.1763 15.1453L8.24473 19.8547C8.09301 19.9448 8 20.1082 8 20.2846V21.33C8 21.6643 8.32179 21.9045 8.6423 21.8093L15.7788 19.6907C16.0993 19.5955 16.4211 19.8357 16.4211 20.17V24.7423C16.4211 24.904 16.3429 25.0557 16.2112 25.1495L14.5257 26.3505C14.394 26.4443 14.3158 26.596 14.3158 26.7577V27.3462C14.3158 27.6756 14.6288 27.915 14.9468 27.8287L17.869 27.0356C17.9548 27.0123 18.0452 27.0123 18.131 27.0356L21.0532 27.8287C21.3712 27.915 21.6842 27.6756 21.6842 27.3462V26.7577C21.6842 26.596 21.606 26.4443 21.4743 26.3505L19.7888 25.1495C19.6571 25.0557 19.5789 24.904 19.5789 24.7423V20.17C19.5789 19.8357 19.9007 19.5955 20.2212 19.6907L27.3577 21.8093Z" fill="#1C925F"/>
</svg>
