<svg width="35" height="32" viewBox="0 0 35 32" fill="none" xmlns="http://www.w3.org/2000/svg">
<path d="M34.3251 14.2993C34.2202 13.7172 34.1502 13.1352 33.9754 12.5532C33.9054 12.245 33.8355 11.9369 33.7305 11.6288C32.4714 7.72569 29.8832 4.61009 26.5954 2.55584C21.9786 -0.251623 16.0676 -0.93637 10.5414 1.46025C3.79098 4.37043 -0.336198 11.5603 0.643133 18.7159C1.20275 22.7901 3.12644 26.2139 5.85457 28.7132C8.79256 31.418 12.7449 31.9315 15.8577 32C16.7321 32 17.6065 31.7603 18.3061 31.281C18.376 31.2468 18.411 31.2125 18.446 31.1783C20.2997 29.843 21.349 28.4735 23.2377 23.1668C23.0628 22.8244 18.1312 23.201 18.7608 22.1739C19.2854 21.3179 22.8879 20.5305 23.6924 19.8457C24.3569 19.2637 25.0565 15.0867 26.6654 14.7444C27.5048 14.5732 26.6654 17.2094 24.6018 30.5278C30.4078 28.1654 34.5 22.5847 34.5 16.0454C34.5 15.4633 34.3951 14.8813 34.3251 14.2993ZM30.4078 24.7759C30.3029 25.221 30.128 25.803 29.6033 25.8715C29.6033 25.8715 29.5334 22.4135 29.4285 20.1881L29.2886 18.6817C28.9388 15.8742 28.7289 15.4976 28.4491 14.8471C26.0008 8.95824 21.8386 11.9027 18.4809 16.422C15.8577 19.9484 13.7592 24.3993 13.3045 26.3508H6.20433C8.33787 22.0369 13.2345 13.3064 18.4809 9.1979C19.9849 7.99959 21.5588 7.17789 23.0628 6.97247C29.3585 6.18501 31.2122 12.5189 31.0024 17.9969C30.8625 21.0098 30.8625 22.619 30.4078 24.7759Z" fill="#16754C"/>
</svg>
