<svg width="294" height="64" viewBox="0 0 294 64" fill="none" xmlns="http://www.w3.org/2000/svg">
<path d="M66.6751 28.5996C66.4683 27.436 66.3304 26.2723 65.9856 25.1086C65.8478 24.4925 65.7099 23.8764 65.503 23.2604C63.0211 15.4568 57.9192 9.22764 51.4385 5.12051C42.3379 -0.492582 30.6864 -1.86163 19.7933 2.93003C6.48709 8.74848 -1.64829 23.1235 0.282139 37.43C1.38524 45.5758 5.17715 52.421 10.5548 57.4181C16.3461 62.8258 24.1367 63.8526 30.2727 63.9895C31.9963 63.9895 33.7199 63.5103 35.0988 62.552C35.2367 62.4835 35.3056 62.4151 35.3746 62.3466C39.0286 59.677 41.0969 56.9389 44.8199 46.3288C44.4752 45.6443 34.7541 46.3972 35.9951 44.3437C37.0292 42.6324 44.1304 41.058 45.7161 39.6889C47.0261 38.5252 48.405 30.174 51.5764 29.4895C53.231 29.1473 51.5764 34.4181 47.5087 61.046C58.9534 56.3228 67.0198 45.1651 67.0198 32.0907C67.0198 30.927 66.813 29.7633 66.6751 28.5996ZM58.9534 49.546C58.7465 50.4359 58.4018 51.5996 57.3677 51.7365C57.3677 51.7365 57.2298 44.8228 57.0229 40.3734L56.7472 37.3615C56.0577 31.7484 55.6441 30.9955 55.0925 29.6949C50.2664 17.9211 42.0621 23.808 35.4435 32.8437C30.2727 39.8943 26.1361 48.7931 25.2398 52.6948H11.2442C15.4498 44.0699 25.1019 26.6145 35.4435 18.4002C38.4081 16.0044 41.5106 14.3616 44.4752 13.9509C56.8851 12.3764 60.5391 25.0401 60.1254 35.9925C59.8496 42.0163 59.8496 45.2335 58.9534 49.546Z" fill="#16754C"/>
<path d="M106.723 34.798H88.2891L85.7754 40.5974H76L92.3389 3.39941H102.626L119.058 40.5974H109.236L106.769 34.798H106.723ZM103.511 27.5033L97.5525 13.5937L91.501 27.5033H103.511Z" fill="black"/>
<path d="M133.506 32.306H153.569V40.6427H124.29V3.39941H133.506V32.306Z" fill="black"/>
<path d="M193.56 29.7688C193.56 35.84 189.557 40.5974 179.13 40.5974H160.277V3.39941H176.849C187.928 3.39941 191.419 7.65838 191.419 13.6391C191.419 17.4902 188.673 20.1634 187.835 20.7524C191.559 22.5648 193.56 25.7816 193.56 29.7688ZM182.668 14.7718C182.668 12.2345 180.992 11.0565 177.454 11.0565H169.541V18.8495H177.454C181.457 18.8495 182.668 17.7168 182.668 14.8171V14.7718ZM178.059 25.691H169.494V32.895H178.059C181.783 32.895 183.645 31.6717 183.645 29.2704C183.645 26.5519 181.737 25.6457 178.059 25.6457V25.691Z" fill="black"/>
<path d="M237.271 21.5227C237.271 33.8465 229.264 41.277 218.604 41.277C207.944 41.277 200.403 33.8465 200.403 21.5227V3.39941H209.62V21.5227C209.62 28.6814 212.786 32.9403 218.604 32.9403C224.423 32.9403 227.961 28.6814 227.961 21.5227V3.39941H237.271V21.5227Z" fill="black"/>
<path d="M275.069 15.1796H265.899C265.899 13.3219 263.664 10.7847 259.708 10.7847C256.961 10.7847 253.563 12.008 253.563 14.1375C253.563 15.9498 256.077 16.6747 261.476 18.034C267.481 19.5745 276 21.5227 276 29.7235C276 36.8369 269.576 41.2771 260.639 41.2771C248.675 41.2771 243.648 33.3934 243.648 27.594H252.818C252.818 27.594 253.563 33.4841 261.151 33.4841C265.247 33.4841 266.783 31.8077 266.783 30.2219C266.783 27.8658 263.571 27.0503 260.033 26.2348C254.308 24.9208 244.253 22.8366 244.253 14.5906C244.253 7.79434 251.096 2.76514 259.847 2.76514C269.809 2.76514 275.069 9.38013 275.069 15.1796Z" fill="black"/>
<path d="M275.531 55.5421C275.325 55.4158 275.096 55.316 274.843 55.2429C274.59 55.1698 274.344 55.1332 274.105 55.1332C273.812 55.1332 273.566 55.193 273.367 55.3127C273.168 55.4257 273.068 55.6119 273.068 55.8712C273.068 56.0706 273.138 56.2302 273.277 56.3499C273.423 56.4629 273.606 56.5593 273.826 56.6391C274.052 56.7122 274.288 56.7854 274.534 56.8585C274.78 56.9316 275.016 57.0247 275.242 57.1377C275.468 57.2441 275.651 57.3937 275.79 57.5865C275.93 57.7793 276 58.032 276 58.3444C276 58.6835 275.907 58.9627 275.721 59.1821C275.541 59.3949 275.305 59.5545 275.012 59.6608C274.727 59.7606 274.414 59.8104 274.075 59.8104C273.703 59.8104 273.337 59.7473 272.978 59.6209C272.619 59.4946 272.313 59.3151 272.061 59.0824L272.36 58.5539C272.586 58.76 272.855 58.9229 273.168 59.0425C273.487 59.1555 273.799 59.2121 274.105 59.2121C274.311 59.2121 274.497 59.1855 274.663 59.1323C274.836 59.0724 274.973 58.986 275.072 58.873C275.179 58.7533 275.232 58.6037 275.232 58.4242C275.239 58.2048 275.172 58.0353 275.032 57.9156C274.899 57.7893 274.72 57.6862 274.494 57.6064C274.274 57.5267 274.038 57.4502 273.786 57.3771C273.54 57.3039 273.304 57.2142 273.078 57.1078C272.858 56.9948 272.679 56.8485 272.539 56.669C272.4 56.4828 272.33 56.2335 272.33 55.9211C272.33 55.5953 272.416 55.3293 272.589 55.1232C272.762 54.9171 272.985 54.7642 273.257 54.6645C273.537 54.5648 273.836 54.5149 274.155 54.5149C274.467 54.5149 274.77 54.5581 275.062 54.6445C275.355 54.7243 275.611 54.8373 275.83 54.9836L275.531 55.5421Z" fill="#4B4E59"/>
<path d="M270.243 56.7493C270.243 56.2706 270.11 55.8983 269.844 55.6324C269.585 55.3598 269.223 55.2235 268.757 55.2235C268.199 55.2301 267.763 55.4196 267.451 55.7919C267.139 56.1576 266.982 56.633 266.982 57.218H266.713C266.713 56.6064 266.806 56.1044 266.992 55.7121C267.178 55.3132 267.444 55.0174 267.79 54.8246C268.142 54.6251 268.555 54.5254 269.027 54.5254C269.446 54.5254 269.805 54.6085 270.104 54.7747C270.403 54.9409 270.629 55.1769 270.782 55.4828C270.941 55.782 271.021 56.1443 271.021 56.5698V59.791H270.243V56.7493ZM266.214 54.5453H266.992V59.791H266.214V54.5453Z" fill="#4B4E59"/>
<path d="M263.556 54.5451H264.324V59.7907H263.556V54.5451ZM263.935 52.5405C264.081 52.5405 264.201 52.5904 264.294 52.6901C264.394 52.7832 264.443 52.9029 264.443 53.0491C264.443 53.1888 264.394 53.3084 264.294 53.4082C264.201 53.5079 264.081 53.5577 263.935 53.5577C263.795 53.5577 263.676 53.5079 263.576 53.4082C263.476 53.3084 263.426 53.1888 263.426 53.0491C263.426 52.9029 263.476 52.7832 263.576 52.6901C263.676 52.5904 263.795 52.5405 263.935 52.5405Z" fill="#4B4E59"/>
<path d="M261.793 59.2421C261.793 59.754 261.683 60.1961 261.463 60.5684C261.244 60.9408 260.938 61.23 260.546 61.4361C260.154 61.6422 259.688 61.7452 259.15 61.7452C258.738 61.7452 258.355 61.6754 258.003 61.5358C257.651 61.4028 257.315 61.2134 256.996 60.9674L257.355 60.4288C257.614 60.6482 257.887 60.8178 258.172 60.9374C258.458 61.0571 258.774 61.117 259.12 61.117C259.505 61.117 259.838 61.0405 260.117 60.8876C260.403 60.7347 260.622 60.5186 260.775 60.2393C260.935 59.9668 261.015 59.641 261.015 59.262V54.5449H261.793V59.2421ZM259.06 54.525C259.525 54.5183 259.928 54.6214 260.267 54.8341C260.606 55.0402 260.868 55.3328 261.055 55.7117C261.247 56.084 261.34 56.5262 261.334 57.0381C261.34 57.55 261.251 57.9955 261.065 58.3744C260.878 58.7534 260.616 59.0459 260.277 59.252C259.938 59.4581 259.539 59.5612 259.08 59.5612C258.608 59.5612 258.192 59.4548 257.833 59.2421C257.474 59.0293 257.192 58.7335 256.986 58.3545C256.786 57.9689 256.687 57.5301 256.687 57.0381C256.687 56.5461 256.786 56.114 256.986 55.7416C257.185 55.3627 257.464 55.0668 257.823 54.8541C258.182 54.6347 258.595 54.525 259.06 54.525ZM259.22 55.1333C258.874 55.1333 258.565 55.2164 258.292 55.3826C258.02 55.5488 257.807 55.7782 257.654 56.0707C257.501 56.3566 257.421 56.6857 257.415 57.058C257.421 57.4237 257.501 57.7528 257.654 58.0453C257.807 58.3312 258.016 58.5573 258.282 58.7235C258.555 58.8831 258.867 58.9628 259.22 58.9628C259.572 58.9628 259.881 58.8831 260.147 58.7235C260.42 58.5573 260.632 58.3312 260.785 58.0453C260.938 57.7528 261.015 57.4237 261.015 57.058C261.015 56.6791 260.938 56.3467 260.785 56.0608C260.632 55.7749 260.42 55.5488 260.147 55.3826C259.881 55.2164 259.572 55.1333 259.22 55.1333Z" fill="#4B4E59"/>
<path d="M255.182 56.859C255.169 56.5066 255.085 56.2041 254.933 55.9515C254.786 55.6922 254.583 55.4927 254.324 55.3531C254.072 55.2135 253.772 55.1437 253.427 55.1437C253.061 55.1437 252.738 55.2268 252.459 55.393C252.187 55.5592 251.971 55.7919 251.811 56.0911C251.651 56.3903 251.572 56.7393 251.572 57.1383C251.572 57.5505 251.651 57.9128 251.811 58.2253C251.977 58.5311 252.207 58.7705 252.499 58.9433C252.792 59.1162 253.124 59.2026 253.496 59.2026C254.161 59.2026 254.703 58.9766 255.122 58.5245L255.551 58.9533C255.298 59.2259 254.992 59.4386 254.633 59.5915C254.274 59.7378 253.879 59.811 253.447 59.811C252.928 59.811 252.469 59.7013 252.07 59.4818C251.678 59.2558 251.372 58.9433 251.153 58.5444C250.933 58.1455 250.824 57.6868 250.824 57.1682C250.824 56.6496 250.933 56.1942 251.153 55.8019C251.372 55.403 251.678 55.0938 252.07 54.8744C252.469 54.6484 252.921 54.532 253.427 54.5254C253.992 54.5254 254.46 54.6484 254.833 54.8944C255.205 55.1337 255.478 55.4728 255.651 55.9116C255.83 56.3438 255.903 56.8524 255.87 57.4374H251.432V56.859H255.182Z" fill="#4B4E59"/>
<path d="M247.465 54.525C247.964 54.525 248.402 54.6381 248.781 54.8641C249.16 55.0902 249.456 55.4026 249.669 55.8016C249.882 56.2005 249.988 56.6592 249.988 57.1778C249.988 57.6897 249.882 58.1451 249.669 58.5441C249.456 58.943 249.16 59.2554 248.781 59.4815C248.409 59.7009 247.974 59.8106 247.475 59.8106C246.996 59.8106 246.577 59.7042 246.218 59.4915C245.866 59.2721 245.59 58.9662 245.391 58.574C245.198 58.1751 245.101 57.7097 245.101 57.1778C245.101 56.6393 245.198 56.1705 245.391 55.7716C245.59 55.3727 245.866 55.0669 246.218 54.8541C246.577 54.6347 246.993 54.525 247.465 54.525ZM247.325 55.1533C246.96 55.1533 246.634 55.2431 246.348 55.4226C246.062 55.5954 245.839 55.8315 245.68 56.1307C245.52 56.4298 245.44 56.7756 245.44 57.1678C245.44 57.5534 245.52 57.8992 245.68 58.205C245.839 58.5042 246.062 58.7402 246.348 58.9131C246.634 59.0859 246.96 59.1723 247.325 59.1723C247.691 59.1723 248.013 59.0859 248.293 58.9131C248.579 58.7402 248.801 58.5042 248.961 58.205C249.12 57.8992 249.2 57.5534 249.2 57.1678C249.2 56.7756 249.12 56.4298 248.961 56.1307C248.801 55.8315 248.579 55.5954 248.293 55.4226C248.013 55.2431 247.691 55.1533 247.325 55.1533ZM244.663 52.3909H245.44V59.7907H244.663V52.3909Z" fill="#4B4E59"/>
<path d="M240.442 55.5421C240.236 55.4158 240.006 55.316 239.754 55.2429C239.501 55.1698 239.255 55.1332 239.016 55.1332C238.723 55.1332 238.477 55.193 238.278 55.3127C238.078 55.4257 237.978 55.6119 237.978 55.8712C237.978 56.0706 238.048 56.2302 238.188 56.3499C238.334 56.4629 238.517 56.5593 238.736 56.6391C238.962 56.7122 239.198 56.7854 239.444 56.8585C239.69 56.9316 239.926 57.0247 240.153 57.1377C240.379 57.2441 240.561 57.3937 240.701 57.5865C240.841 57.7793 240.91 58.032 240.91 58.3444C240.91 58.6835 240.817 58.9627 240.631 59.1821C240.452 59.3949 240.216 59.5545 239.923 59.6608C239.637 59.7606 239.325 59.8104 238.986 59.8104C238.613 59.8104 238.248 59.7473 237.889 59.6209C237.53 59.4946 237.224 59.3151 236.971 59.0824L237.27 58.5539C237.496 58.76 237.766 58.9229 238.078 59.0425C238.397 59.1555 238.71 59.2121 239.016 59.2121C239.222 59.2121 239.408 59.1855 239.574 59.1323C239.747 59.0724 239.883 58.986 239.983 58.873C240.089 58.7533 240.143 58.6037 240.143 58.4242C240.149 58.2048 240.083 58.0353 239.943 57.9156C239.81 57.7893 239.631 57.6862 239.405 57.6064C239.185 57.5267 238.949 57.4502 238.696 57.3771C238.45 57.3039 238.214 57.2142 237.988 57.1078C237.769 56.9948 237.59 56.8485 237.45 56.669C237.31 56.4828 237.24 56.2335 237.24 55.9211C237.24 55.5953 237.327 55.3293 237.5 55.1232C237.673 54.9171 237.895 54.7642 238.168 54.6645C238.447 54.5648 238.746 54.5149 239.065 54.5149C239.378 54.5149 239.68 54.5581 239.973 54.6445C240.266 54.7243 240.521 54.8373 240.741 54.9836L240.442 55.5421Z" fill="#4B4E59"/>
<path d="M235.923 55.5421C235.717 55.4158 235.487 55.316 235.235 55.2429C234.982 55.1698 234.736 55.1332 234.497 55.1332C234.204 55.1332 233.958 55.193 233.759 55.3127C233.559 55.4257 233.459 55.6119 233.459 55.8712C233.459 56.0706 233.529 56.2302 233.669 56.3499C233.815 56.4629 233.998 56.5593 234.217 56.6391C234.443 56.7122 234.679 56.7854 234.925 56.8585C235.171 56.9316 235.407 57.0247 235.633 57.1377C235.86 57.2441 236.042 57.3937 236.182 57.5865C236.322 57.7793 236.391 58.032 236.391 58.3444C236.391 58.6835 236.298 58.9627 236.112 59.1821C235.933 59.3949 235.697 59.5545 235.404 59.6608C235.118 59.7606 234.806 59.8104 234.467 59.8104C234.094 59.8104 233.729 59.7473 233.37 59.6209C233.011 59.4946 232.705 59.3151 232.452 59.0824L232.751 58.5539C232.977 58.76 233.247 58.9229 233.559 59.0425C233.878 59.1555 234.191 59.2121 234.497 59.2121C234.703 59.2121 234.889 59.1855 235.055 59.1323C235.228 59.0724 235.364 58.986 235.464 58.873C235.57 58.7533 235.623 58.6037 235.623 58.4242C235.63 58.2048 235.564 58.0353 235.424 57.9156C235.291 57.7893 235.112 57.6862 234.886 57.6064C234.666 57.5267 234.43 57.4502 234.177 57.3771C233.931 57.3039 233.695 57.2142 233.469 57.1078C233.25 56.9948 233.07 56.8485 232.931 56.669C232.791 56.4828 232.721 56.2335 232.721 55.9211C232.721 55.5953 232.808 55.3293 232.981 55.1232C233.154 54.9171 233.376 54.7642 233.649 54.6645C233.928 54.5648 234.227 54.5149 234.546 54.5149C234.859 54.5149 235.161 54.5581 235.454 54.6445C235.746 54.7243 236.002 54.8373 236.222 54.9836L235.923 55.5421Z" fill="#4B4E59"/>
<path d="M231.117 56.859C231.104 56.5066 231.02 56.2041 230.868 55.9515C230.721 55.6922 230.519 55.4927 230.259 55.3531C230.007 55.2135 229.707 55.1437 229.362 55.1437C228.996 55.1437 228.674 55.2268 228.394 55.393C228.122 55.5592 227.906 55.7919 227.746 56.0911C227.587 56.3903 227.507 56.7393 227.507 57.1383C227.507 57.5505 227.587 57.9128 227.746 58.2253C227.912 58.5311 228.142 58.7705 228.434 58.9433C228.727 59.1162 229.059 59.2026 229.431 59.2026C230.096 59.2026 230.638 58.9766 231.057 58.5245L231.486 58.9533C231.233 59.2259 230.927 59.4386 230.568 59.5915C230.209 59.7378 229.814 59.811 229.382 59.811C228.863 59.811 228.404 59.7013 228.005 59.4818C227.613 59.2558 227.307 58.9433 227.088 58.5444C226.868 58.1455 226.759 57.6868 226.759 57.1682C226.759 56.6496 226.868 56.1942 227.088 55.8019C227.307 55.403 227.613 55.0938 228.005 54.8744C228.404 54.6484 228.856 54.532 229.362 54.5254C229.927 54.5254 230.396 54.6484 230.768 54.8944C231.14 55.1337 231.413 55.4728 231.586 55.9116C231.765 56.3438 231.838 56.8524 231.805 57.4374H227.367V56.859H231.117Z" fill="#4B4E59"/>
<path d="M224.772 56.7493C224.772 56.2706 224.639 55.8983 224.373 55.6324C224.114 55.3598 223.752 55.2235 223.286 55.2235C222.728 55.2301 222.292 55.4196 221.98 55.7919C221.667 56.1576 221.511 56.633 221.511 57.218H221.242C221.242 56.6064 221.335 56.1044 221.521 55.7121C221.707 55.3132 221.973 55.0174 222.319 54.8246C222.671 54.6251 223.083 54.5254 223.555 54.5254C223.974 54.5254 224.333 54.6085 224.633 54.7747C224.932 54.9409 225.158 55.1769 225.311 55.4828C225.47 55.782 225.55 56.1443 225.55 56.5698V59.791H224.772V56.7493ZM220.743 54.5453H221.521V59.791H220.743V54.5453Z" fill="#4B4E59"/>
<path d="M218.084 54.5451H218.852V59.7907H218.084V54.5451ZM218.463 52.5405C218.609 52.5405 218.729 52.5904 218.822 52.6901C218.921 52.7832 218.971 52.9029 218.971 53.0491C218.971 53.1888 218.921 53.3084 218.822 53.4082C218.729 53.5079 218.609 53.5577 218.463 53.5577C218.323 53.5577 218.203 53.5079 218.104 53.4082C218.004 53.3084 217.954 53.1888 217.954 53.0491C217.954 52.9029 218.004 52.7832 218.104 52.6901C218.203 52.5904 218.323 52.5405 218.463 52.5405Z" fill="#4B4E59"/>
<path d="M216.338 55.5421C216.132 55.4158 215.902 55.316 215.65 55.2429C215.397 55.1698 215.151 55.1332 214.912 55.1332C214.619 55.1332 214.373 55.193 214.174 55.3127C213.974 55.4257 213.874 55.6119 213.874 55.8712C213.874 56.0706 213.944 56.2302 214.084 56.3499C214.23 56.4629 214.413 56.5593 214.632 56.6391C214.858 56.7122 215.094 56.7854 215.34 56.8585C215.586 56.9316 215.822 57.0247 216.049 57.1377C216.275 57.2441 216.457 57.3937 216.597 57.5865C216.737 57.7793 216.806 58.032 216.806 58.3444C216.806 58.6835 216.713 58.9627 216.527 59.1821C216.348 59.3949 216.112 59.5545 215.819 59.6608C215.533 59.7606 215.221 59.8104 214.882 59.8104C214.509 59.8104 214.144 59.7473 213.785 59.6209C213.426 59.4946 213.12 59.3151 212.867 59.0824L213.166 58.5539C213.392 58.76 213.662 58.9229 213.974 59.0425C214.293 59.1555 214.606 59.2121 214.912 59.2121C215.118 59.2121 215.304 59.1855 215.47 59.1323C215.643 59.0724 215.779 58.986 215.879 58.873C215.985 58.7533 216.039 58.6037 216.039 58.4242C216.045 58.2048 215.979 58.0353 215.839 57.9156C215.706 57.7893 215.527 57.6862 215.301 57.6064C215.081 57.5267 214.845 57.4502 214.592 57.3771C214.346 57.3039 214.11 57.2142 213.884 57.1078C213.665 56.9948 213.486 56.8485 213.346 56.669C213.206 56.4828 213.136 56.2335 213.136 55.9211C213.136 55.5953 213.223 55.3293 213.396 55.1232C213.569 54.9171 213.791 54.7642 214.064 54.6645C214.343 54.5648 214.642 54.5149 214.961 54.5149C215.274 54.5149 215.576 54.5581 215.869 54.6445C216.162 54.7243 216.417 54.8373 216.637 54.9836L216.338 55.5421Z" fill="#4B4E59"/>
<path d="M207.706 57.5966C207.706 58.0686 207.836 58.4409 208.095 58.7135C208.354 58.9795 208.71 59.1124 209.162 59.1124C209.707 59.0991 210.129 58.9097 210.429 58.544C210.735 58.1783 210.887 57.703 210.887 57.1179H211.147C211.147 57.7296 211.054 58.2348 210.867 58.6338C210.688 59.026 210.429 59.3185 210.09 59.5114C209.757 59.7042 209.358 59.8039 208.893 59.8105C208.487 59.8105 208.138 59.7308 207.846 59.5712C207.553 59.405 207.327 59.169 207.168 58.8631C207.008 58.5573 206.928 58.1949 206.928 57.7761V54.5449H207.706V57.5966ZM210.887 54.5449H211.665V59.7906H210.887V54.5449Z" fill="#4B4E59"/>
<path d="M203.221 54.525C203.719 54.525 204.158 54.6381 204.537 54.8641C204.916 55.0902 205.212 55.4026 205.425 55.8016C205.638 56.2005 205.744 56.6592 205.744 57.1778C205.744 57.6897 205.638 58.1451 205.425 58.5441C205.212 58.943 204.916 59.2554 204.537 59.4815C204.165 59.7009 203.729 59.8106 203.231 59.8106C202.752 59.8106 202.333 59.7042 201.974 59.4915C201.622 59.2721 201.346 58.9662 201.146 58.574C200.954 58.1751 200.857 57.7097 200.857 57.1778C200.857 56.6393 200.954 56.1705 201.146 55.7716C201.346 55.3727 201.622 55.0669 201.974 54.8541C202.333 54.6347 202.749 54.525 203.221 54.525ZM203.081 55.1533C202.716 55.1533 202.39 55.2431 202.104 55.4226C201.818 55.5954 201.595 55.8315 201.436 56.1307C201.276 56.4298 201.196 56.7756 201.196 57.1678C201.196 57.5534 201.276 57.8992 201.436 58.205C201.595 58.5042 201.818 58.7402 202.104 58.9131C202.39 59.0859 202.716 59.1723 203.081 59.1723C203.447 59.1723 203.769 59.0859 204.049 58.9131C204.334 58.7402 204.557 58.5042 204.717 58.205C204.876 57.8992 204.956 57.5534 204.956 57.1678C204.956 56.7756 204.876 56.4298 204.717 56.1307C204.557 55.8315 204.334 55.5954 204.049 55.4226C203.769 55.2431 203.447 55.1533 203.081 55.1533ZM200.418 52.3909H201.196V59.7907H200.418V52.3909Z" fill="#4B4E59"/>
<path d="M195.025 58.2153C195.025 58.5478 195.085 58.7871 195.204 58.9334C195.324 59.073 195.497 59.1428 195.723 59.1428C195.856 59.1362 195.992 59.1129 196.132 59.073C196.271 59.0265 196.414 58.9566 196.561 58.8636L196.78 59.432C196.601 59.5517 196.408 59.6481 196.202 59.7212C196.002 59.7877 195.799 59.821 195.593 59.821C195.334 59.821 195.105 59.7711 194.905 59.6714C194.706 59.565 194.546 59.4021 194.426 59.1827C194.313 58.9633 194.257 58.6807 194.257 58.335V53.3486H195.025V58.2153ZM193.499 54.7049H196.69V55.2833H193.499V54.7049Z" fill="#4B4E59"/>
<path d="M191.553 56.749C191.553 56.2703 191.42 55.898 191.154 55.632C190.895 55.3594 190.533 55.2231 190.067 55.2231C189.509 55.2298 189.073 55.4193 188.761 55.7916C188.448 56.1572 188.292 56.6326 188.292 57.2177H188.023C188.023 56.606 188.116 56.1041 188.302 55.7118C188.488 55.3129 188.754 55.017 189.1 54.8242C189.452 54.6248 189.864 54.525 190.336 54.525C190.755 54.525 191.114 54.6081 191.414 54.7744C191.713 54.9406 191.939 55.1766 192.092 55.4824C192.251 55.7816 192.331 56.1439 192.331 56.5695V59.7907H191.553V56.749ZM187.514 52.3909H188.292V59.7907H187.514V52.3909Z" fill="#4B4E59"/>
<path d="M185.702 59.2421C185.702 59.754 185.592 60.1961 185.373 60.5684C185.153 60.9408 184.847 61.23 184.455 61.4361C184.063 61.6422 183.598 61.7452 183.059 61.7452C182.647 61.7452 182.264 61.6754 181.912 61.5358C181.56 61.4028 181.224 61.2134 180.905 60.9674L181.264 60.4288C181.523 60.6482 181.796 60.8178 182.082 60.9374C182.368 61.0571 182.683 61.117 183.029 61.117C183.415 61.117 183.747 61.0405 184.026 60.8876C184.312 60.7347 184.532 60.5186 184.685 60.2393C184.844 59.9668 184.924 59.641 184.924 59.262V54.5449H185.702V59.2421ZM182.969 54.525C183.435 54.5183 183.837 54.6214 184.176 54.8341C184.515 55.0402 184.778 55.3328 184.964 55.7117C185.157 56.084 185.25 56.5262 185.243 57.0381C185.25 57.55 185.16 57.9955 184.974 58.3744C184.788 58.7534 184.525 59.0459 184.186 59.252C183.847 59.4581 183.448 59.5612 182.989 59.5612C182.517 59.5612 182.102 59.4548 181.743 59.2421C181.384 59.0293 181.101 58.7335 180.895 58.3545C180.695 57.9689 180.596 57.5301 180.596 57.0381C180.596 56.5461 180.695 56.114 180.895 55.7416C181.094 55.3627 181.374 55.0668 181.733 54.8541C182.092 54.6347 182.504 54.525 182.969 54.525ZM183.129 55.1333C182.783 55.1333 182.474 55.2164 182.201 55.3826C181.929 55.5488 181.716 55.7782 181.563 56.0707C181.41 56.3566 181.33 56.6857 181.324 57.058C181.33 57.4237 181.41 57.7528 181.563 58.0453C181.716 58.3312 181.925 58.5573 182.191 58.7235C182.464 58.8831 182.776 58.9628 183.129 58.9628C183.481 58.9628 183.79 58.8831 184.056 58.7235C184.329 58.5573 184.542 58.3312 184.695 58.0453C184.847 57.7528 184.924 57.4237 184.924 57.058C184.924 56.6791 184.847 56.3467 184.695 56.0608C184.542 55.7749 184.329 55.5488 184.056 55.3826C183.79 55.2164 183.481 55.1333 183.129 55.1333Z" fill="#4B4E59"/>
<path d="M178.466 54.5451H179.233V59.7907H178.466V54.5451ZM178.845 52.5405C178.991 52.5405 179.11 52.5904 179.204 52.6901C179.303 52.7832 179.353 52.9029 179.353 53.0491C179.353 53.1888 179.303 53.3084 179.204 53.4082C179.11 53.5079 178.991 53.5577 178.845 53.5577C178.705 53.5577 178.585 53.5079 178.486 53.4082C178.386 53.3084 178.336 53.1888 178.336 53.0491C178.336 52.9029 178.386 52.7832 178.486 52.6901C178.585 52.5904 178.705 52.5405 178.845 52.5405Z" fill="#4B4E59"/>
<path d="M172.46 54.0665C172.46 53.6875 172.537 53.3684 172.69 53.1091C172.849 52.8498 173.059 52.6537 173.318 52.5207C173.577 52.3811 173.85 52.3146 174.136 52.3213C174.289 52.3213 174.442 52.3445 174.595 52.3911C174.754 52.431 174.9 52.4875 175.033 52.5606L174.844 53.159C174.744 53.1124 174.634 53.0725 174.515 53.0393C174.402 52.9994 174.282 52.9795 174.156 52.9795C173.99 52.9795 173.833 53.0193 173.687 53.0991C173.547 53.1723 173.434 53.2853 173.348 53.4382C173.268 53.5845 173.228 53.764 173.228 53.9767V59.7908H172.46V54.0665ZM171.782 54.7047H174.734V55.2832H171.782V54.7047ZM175.741 52.3911H176.519V59.7908H175.741V52.3911Z" fill="#4B4E59"/>
<path d="M167.36 56.7493C167.36 56.2706 167.227 55.8983 166.961 55.6324C166.702 55.3598 166.34 55.2235 165.874 55.2235C165.316 55.2301 164.88 55.4196 164.568 55.7919C164.255 56.1576 164.099 56.633 164.099 57.218H163.83C163.83 56.6064 163.923 56.1044 164.109 55.7121C164.295 55.3132 164.561 55.0174 164.907 54.8246C165.259 54.6251 165.671 54.5254 166.143 54.5254C166.562 54.5254 166.921 54.6085 167.22 54.7747C167.52 54.9409 167.746 55.1769 167.899 55.4828C168.058 55.782 168.138 56.1443 168.138 56.5698V59.791H167.36V56.7493ZM163.331 54.5453H164.109V59.791H163.331V54.5453Z" fill="#4B4E59"/>
<path d="M162.283 55.2335C161.891 55.2268 161.552 55.3099 161.266 55.4828C160.987 55.649 160.771 55.885 160.618 56.1908C160.465 56.49 160.389 56.8424 160.389 57.248L160.119 57.218C160.119 56.6463 160.206 56.1609 160.379 55.762C160.551 55.3631 160.801 55.0573 161.126 54.8445C161.452 54.6318 161.838 54.5254 162.283 54.5254V55.2335ZM159.621 54.5453H160.398V59.791H159.621V54.5453Z" fill="#4B4E59"/>
<path d="M157.587 56.859C157.574 56.5066 157.491 56.2041 157.338 55.9515C157.192 55.6922 156.989 55.4927 156.729 55.3531C156.477 55.2135 156.178 55.1437 155.832 55.1437C155.466 55.1437 155.144 55.2268 154.865 55.393C154.592 55.5592 154.376 55.7919 154.216 56.0911C154.057 56.3903 153.977 56.7393 153.977 57.1383C153.977 57.5505 154.057 57.9128 154.216 58.2253C154.383 58.5311 154.612 58.7705 154.904 58.9433C155.197 59.1162 155.529 59.2026 155.902 59.2026C156.567 59.2026 157.108 58.9766 157.527 58.5245L157.956 58.9533C157.703 59.2259 157.398 59.4386 157.039 59.5915C156.68 59.7378 156.284 59.811 155.852 59.811C155.333 59.811 154.875 59.7013 154.476 59.4818C154.083 59.2558 153.778 58.9433 153.558 58.5444C153.339 58.1455 153.229 57.6868 153.229 57.1682C153.229 56.6496 153.339 56.1942 153.558 55.8019C153.778 55.403 154.083 55.0938 154.476 54.8744C154.875 54.6484 155.327 54.532 155.832 54.5254C156.397 54.5254 156.866 54.6484 157.238 54.8944C157.61 55.1337 157.883 55.4728 158.056 55.9116C158.235 56.3438 158.308 56.8524 158.275 57.4374H153.837V56.859H157.587Z" fill="#4B4E59"/>
<path d="M148.993 54.5151C149.478 54.5151 149.9 54.6248 150.259 54.8442C150.618 55.0636 150.894 55.3727 151.087 55.7716C151.287 56.1639 151.383 56.6293 151.376 57.1678C151.383 57.7063 151.287 58.1751 151.087 58.574C150.894 58.9729 150.618 59.282 150.259 59.5014C149.907 59.7208 149.488 59.8305 149.003 59.8305C148.504 59.8305 148.062 59.7175 147.676 59.4915C147.297 59.2588 147.002 58.943 146.789 58.5441C146.576 58.1451 146.47 57.6864 146.47 57.1678C146.47 56.6426 146.576 56.1838 146.789 55.7916C147.002 55.3927 147.297 55.0802 147.676 54.8541C148.055 54.6281 148.494 54.5151 148.993 54.5151ZM149.142 55.1533C148.777 55.1533 148.451 55.2431 148.165 55.4226C147.879 55.5954 147.653 55.8348 147.487 56.1406C147.327 56.4398 147.248 56.7855 147.248 57.1778C147.248 57.5701 147.327 57.9191 147.487 58.2249C147.653 58.5241 147.879 58.7601 148.165 58.933C148.451 59.1059 148.777 59.1923 149.142 59.1923C149.515 59.1923 149.844 59.1059 150.13 58.933C150.416 58.7601 150.638 58.5241 150.798 58.2249C150.964 57.9191 151.047 57.5701 151.047 57.1778C151.047 56.7855 150.964 56.4398 150.798 56.1406C150.638 55.8348 150.416 55.5954 150.13 55.4226C149.844 55.2431 149.515 55.1533 149.142 55.1533ZM151.047 52.3909H151.825V59.7907H151.047V52.3909Z" fill="#4B4E59"/>
<path d="M142.968 54.5254C143.487 54.5254 143.946 54.6384 144.345 54.8645C144.75 55.0839 145.066 55.393 145.292 55.7919C145.518 56.1908 145.631 56.6496 145.631 57.1682C145.631 57.6868 145.518 58.1455 145.292 58.5444C145.066 58.9433 144.75 59.2558 144.345 59.4818C143.946 59.7013 143.487 59.811 142.968 59.811C142.45 59.811 141.988 59.7013 141.582 59.4818C141.183 59.2558 140.871 58.9433 140.645 58.5444C140.419 58.1455 140.306 57.6868 140.306 57.1682C140.306 56.6496 140.419 56.1908 140.645 55.7919C140.871 55.393 141.183 55.0839 141.582 54.8645C141.988 54.6384 142.45 54.5254 142.968 54.5254ZM142.968 55.1736C142.603 55.1736 142.277 55.26 141.991 55.4329C141.705 55.5991 141.482 55.8318 141.323 56.131C141.163 56.4302 141.084 56.7759 141.084 57.1682C141.084 57.5671 141.163 57.9195 141.323 58.2253C141.482 58.5245 141.705 58.7605 141.991 58.9333C142.277 59.0996 142.603 59.1827 142.968 59.1827C143.341 59.1827 143.666 59.0996 143.946 58.9333C144.232 58.7605 144.454 58.5245 144.614 58.2253C144.773 57.9195 144.853 57.5671 144.853 57.1682C144.853 56.7759 144.773 56.4302 144.614 56.131C144.454 55.8318 144.232 55.5991 143.946 55.4329C143.666 55.26 143.341 55.1736 142.968 55.1736Z" fill="#4B4E59"/>
<path d="M134.373 56.7493C134.373 56.2706 134.243 55.895 133.984 55.6224C133.731 55.3498 133.375 55.2135 132.917 55.2135C132.378 55.2268 131.956 55.4196 131.65 55.7919C131.344 56.1576 131.191 56.633 131.191 57.218H130.932C130.932 56.6064 131.022 56.1044 131.201 55.7121C131.387 55.3132 131.65 55.0174 131.989 54.8246C132.328 54.6251 132.73 54.5254 133.196 54.5254C133.608 54.5254 133.957 54.6085 134.243 54.7747C134.535 54.9409 134.758 55.1769 134.911 55.4828C135.071 55.782 135.15 56.1443 135.15 56.5698V59.791H134.373V56.7493ZM138.332 56.7493C138.332 56.2706 138.202 55.895 137.943 55.6224C137.684 55.3498 137.328 55.2135 136.876 55.2135C136.337 55.2268 135.915 55.4196 135.609 55.7919C135.303 56.1576 135.15 56.633 135.15 57.218H134.881C134.881 56.6064 134.971 56.1044 135.15 55.7121C135.337 55.3132 135.599 55.0174 135.938 54.8246C136.277 54.6251 136.683 54.5254 137.155 54.5254C137.561 54.5254 137.91 54.6085 138.202 54.7747C138.495 54.9409 138.717 55.1769 138.87 55.4828C139.03 55.782 139.11 56.1443 139.11 56.5698V59.791H138.332V56.7493ZM130.423 54.5453H131.191V59.791H130.423V54.5453Z" fill="#4B4E59"/>
<path d="M125.965 56.859C125.951 56.5066 125.868 56.2041 125.715 55.9515C125.569 55.6922 125.366 55.4927 125.107 55.3531C124.854 55.2135 124.555 55.1437 124.209 55.1437C123.844 55.1437 123.521 55.2268 123.242 55.393C122.969 55.5592 122.753 55.7919 122.594 56.0911C122.434 56.3903 122.354 56.7393 122.354 57.1383C122.354 57.5505 122.434 57.9128 122.594 58.2253C122.76 58.5311 122.989 58.7705 123.282 58.9433C123.574 59.1162 123.907 59.2026 124.279 59.2026C124.944 59.2026 125.486 58.9766 125.905 58.5245L126.334 58.9533C126.081 59.2259 125.775 59.4386 125.416 59.5915C125.057 59.7378 124.661 59.811 124.229 59.811C123.711 59.811 123.252 59.7013 122.853 59.4818C122.461 59.2558 122.155 58.9433 121.936 58.5444C121.716 58.1455 121.606 57.6868 121.606 57.1682C121.606 56.6496 121.716 56.1942 121.936 55.8019C122.155 55.403 122.461 55.0938 122.853 54.8744C123.252 54.6484 123.704 54.532 124.209 54.5254C124.774 54.5254 125.243 54.6484 125.615 54.8944C125.988 55.1337 126.26 55.4728 126.433 55.9116C126.613 56.3438 126.686 56.8524 126.653 57.4374H122.215V56.859H125.965Z" fill="#4B4E59"/>
<path d="M119.621 56.749C119.621 56.2703 119.488 55.898 119.222 55.632C118.963 55.3594 118.6 55.2231 118.135 55.2231C117.577 55.2298 117.141 55.4193 116.829 55.7916C116.516 56.1572 116.36 56.6326 116.36 57.2177H116.091C116.091 56.606 116.184 56.1041 116.37 55.7118C116.556 55.3129 116.822 55.017 117.168 54.8242C117.52 54.6248 117.932 54.525 118.404 54.525C118.823 54.525 119.182 54.6081 119.481 54.7744C119.781 54.9406 120.007 55.1766 120.16 55.4824C120.319 55.7816 120.399 56.1439 120.399 56.5695V59.7907H119.621V56.749ZM115.582 52.3909H116.36V59.7907H115.582V52.3909Z" fill="#4B4E59"/>
<path d="M112.613 58.2153C112.613 58.5478 112.673 58.7871 112.793 58.9334C112.912 59.073 113.085 59.1428 113.311 59.1428C113.444 59.1362 113.581 59.1129 113.72 59.073C113.86 59.0265 114.003 58.9566 114.149 58.8636L114.368 59.432C114.189 59.5517 113.996 59.6481 113.79 59.7212C113.591 59.7877 113.388 59.821 113.182 59.821C112.922 59.821 112.693 59.7711 112.494 59.6714C112.294 59.565 112.135 59.4021 112.015 59.1827C111.902 58.9633 111.845 58.6807 111.845 58.335V53.3486H112.613V58.2153ZM111.087 54.7049H114.279V55.2833H111.087V54.7049Z" fill="#4B4E59"/>
<path d="M107.198 56.859C107.185 56.5066 107.102 56.2041 106.949 55.9515C106.802 55.6922 106.6 55.4927 106.34 55.3531C106.088 55.2135 105.788 55.1437 105.443 55.1437C105.077 55.1437 104.755 55.2268 104.475 55.393C104.203 55.5592 103.987 55.7919 103.827 56.0911C103.668 56.3903 103.588 56.7393 103.588 57.1383C103.588 57.5505 103.668 57.9128 103.827 58.2253C103.993 58.5311 104.223 58.7705 104.515 58.9433C104.808 59.1162 105.14 59.2026 105.513 59.2026C106.177 59.2026 106.719 58.9766 107.138 58.5245L107.567 58.9533C107.314 59.2259 107.008 59.4386 106.649 59.5915C106.29 59.7378 105.895 59.811 105.463 59.811C104.944 59.811 104.485 59.7013 104.086 59.4818C103.694 59.2558 103.388 58.9433 103.169 58.5444C102.95 58.1455 102.84 57.6868 102.84 57.1682C102.84 56.6496 102.95 56.1942 103.169 55.8019C103.388 55.403 103.694 55.0938 104.086 54.8744C104.485 54.6484 104.937 54.532 105.443 54.5254C106.008 54.5254 106.477 54.6484 106.849 54.8944C107.221 55.1337 107.494 55.4728 107.667 55.9116C107.846 56.3438 107.919 56.8524 107.886 57.4374H103.448V56.859H107.198Z" fill="#4B4E59"/>
<path d="M102.32 55.2335C101.928 55.2268 101.589 55.3099 101.303 55.4828C101.023 55.649 100.807 55.885 100.655 56.1908C100.502 56.49 100.425 56.8424 100.425 57.248L100.156 57.218C100.156 56.6463 100.242 56.1609 100.415 55.762C100.588 55.3631 100.837 55.0573 101.163 54.8445C101.489 54.6318 101.875 54.5254 102.32 54.5254V55.2335ZM99.6572 54.5453H100.435V59.791H99.6572V54.5453Z" fill="#4B4E59"/>
<path d="M97.6242 56.859C97.6109 56.5066 97.5278 56.2041 97.3749 55.9515C97.2286 55.6922 97.0258 55.4927 96.7666 55.3531C96.5139 55.2135 96.2147 55.1437 95.869 55.1437C95.5033 55.1437 95.1809 55.2268 94.9016 55.393C94.6291 55.5592 94.413 55.7919 94.2534 56.0911C94.0939 56.3903 94.0141 56.7393 94.0141 57.1383C94.0141 57.5505 94.0939 57.9128 94.2534 58.2253C94.4196 58.5311 94.649 58.7705 94.9415 58.9433C95.2341 59.1162 95.5665 59.2026 95.9388 59.2026C96.6037 59.2026 97.1455 58.9766 97.5644 58.5245L97.9932 58.9533C97.7406 59.2259 97.4347 59.4386 97.0757 59.5915C96.7167 59.7378 96.3211 59.811 95.8889 59.811C95.3704 59.811 94.9116 59.7013 94.5127 59.4818C94.1204 59.2558 93.8146 58.9433 93.5952 58.5444C93.3758 58.1455 93.2661 57.6868 93.2661 57.1682C93.2661 56.6496 93.3758 56.1942 93.5952 55.8019C93.8146 55.403 94.1204 55.0938 94.5127 54.8744C94.9116 54.6484 95.3637 54.532 95.869 54.5254C96.4341 54.5254 96.9028 54.6484 97.2752 54.8944C97.6475 55.1337 97.9201 55.4728 98.0929 55.9116C98.2724 56.3438 98.3456 56.8524 98.3123 57.4374H93.8745V56.859H97.6242Z" fill="#4B4E59"/>
<path d="M91.2802 56.749C91.2802 56.2703 91.1472 55.898 90.8813 55.632C90.622 55.3594 90.2596 55.2231 89.7942 55.2231C89.2358 55.2298 88.8003 55.4193 88.4878 55.7916C88.1753 56.1572 88.0191 56.6326 88.0191 57.2177H87.7498C87.7498 56.606 87.8429 56.1041 88.0291 55.7118C88.2152 55.3129 88.4812 55.017 88.8269 54.8242C89.1793 54.6248 89.5915 54.525 90.0635 54.525C90.4824 54.525 90.8414 54.6081 91.1406 54.7744C91.4397 54.9406 91.6658 55.1766 91.8187 55.4824C91.9783 55.7816 92.0581 56.1439 92.0581 56.5695V59.7907H91.2802V56.749ZM87.2412 52.3909H88.0191V59.7907H87.2412V52.3909Z" fill="#4B4E59"/>
<path d="M76 52.8096H76.8577L78.8921 59.2819H78.6827L80.7071 52.8096H81.505L83.5394 59.2819H83.34L85.3545 52.8096H86.1922L83.8286 59.7905H83.0009L80.9964 53.4678H81.2058L79.1713 59.7905H78.3536L76 52.8096Z" fill="#4B4E59"/>
</svg>
