<svg width="143" height="33" viewBox="0 0 143 33" fill="none" xmlns="http://www.w3.org/2000/svg">
<path d="M25.8006 15.1815C25.7205 14.7303 25.6672 14.2791 25.5338 13.8279C25.4804 13.589 25.4271 13.3502 25.347 13.1113C24.3866 10.0856 22.4124 7.67042 19.9046 6.07797C16.3831 3.90162 11.8744 3.37081 7.65919 5.22866C2.51024 7.48463 -0.637822 13.0582 0.109176 18.6052C0.536033 21.7636 2.00335 24.4177 4.08427 26.3552C6.32527 28.4519 9.33994 28.85 11.7143 28.9031C12.3813 28.9031 13.0483 28.7173 13.5818 28.3457C13.6352 28.3192 13.6619 28.2927 13.6885 28.2661C15.1025 27.231 15.9029 26.1694 17.3435 22.0556C17.2101 21.7901 13.4484 22.0821 13.9286 21.2859C14.3288 20.6223 17.0767 20.0119 17.6903 19.4811C18.1972 19.0299 18.7308 15.7919 19.958 15.5265C20.5983 15.3938 19.958 17.4374 18.384 27.7618C22.8126 25.9305 25.934 21.6044 25.934 16.5351C25.934 16.0839 25.8539 15.6327 25.8006 15.1815ZM22.8126 23.303C22.7326 23.648 22.5992 24.0992 22.199 24.1523C22.199 24.1523 22.1456 21.4717 22.0656 19.7465L21.9589 18.5787C21.6921 16.4024 21.532 16.1104 21.3186 15.6061C19.4511 11.0411 16.2764 13.3236 13.7152 16.827C11.7143 19.5607 10.1136 23.011 9.7668 24.5239H4.35106C5.97845 21.1797 9.71344 14.4118 13.7152 11.2269C14.8624 10.298 16.0629 9.66098 17.2101 9.50174C22.0122 8.8913 23.4262 13.8014 23.2661 18.0479C23.1594 20.3835 23.1594 21.6309 22.8126 23.303Z" fill="#A8A8AE"/>
<path d="M46.0108 22.4717H37.5647L36.413 25.1823H31.934L39.4203 7.79639H44.1339L51.6629 25.1823H47.1625L46.0321 22.4717H46.0108ZM44.5391 19.0623L41.8091 12.5611L39.0364 19.0623H44.5391Z" fill="#A8A8AE"/>
<path d="M58.2826 21.307H67.4752V25.2034H54.0596V7.79639H58.2826V21.307Z" fill="#A8A8AE"/>
<path d="M85.7989 20.1211C85.7989 22.9587 83.9646 25.1823 79.187 25.1823H70.549V7.79639H78.1419C83.2181 7.79639 84.8177 9.78697 84.8177 12.5823C84.8177 14.3823 83.5594 15.6317 83.1754 15.907C84.8817 16.754 85.7989 18.2576 85.7989 20.1211ZM80.808 13.1117C80.808 11.9258 80.0402 11.3752 78.4192 11.3752H74.7933V15.0176H78.4192C80.2534 15.0176 80.808 14.4882 80.808 13.1329V13.1117ZM78.6965 18.2152H74.772V21.5823H78.6965C80.4027 21.5823 81.2559 21.0105 81.2559 19.8882C81.2559 18.6176 80.3814 18.194 78.6965 18.194V18.2152Z" fill="#A8A8AE"/>
<path d="M105.826 16.267C105.826 22.027 102.158 25.4999 97.2737 25.4999C92.3894 25.4999 88.9342 22.027 88.9342 16.267V7.79639H93.1573V16.267C93.1573 19.6129 94.6076 21.6034 97.2737 21.6034C99.9397 21.6034 101.561 19.6129 101.561 16.267V7.79639H105.826V16.267Z" fill="#A8A8AE"/>
<path d="M123.145 13.3024H118.943C118.943 12.4341 117.92 11.2482 116.107 11.2482C114.848 11.2482 113.291 11.82 113.291 12.8153C113.291 13.6624 114.443 14.0012 116.917 14.6365C119.669 15.3565 123.572 16.2671 123.572 20.1C123.572 23.4247 120.628 25.5 116.533 25.5C111.052 25.5 108.748 21.8153 108.748 19.1047H112.95C112.95 19.1047 113.291 21.8576 116.768 21.8576C118.645 21.8576 119.349 21.0741 119.349 20.3329C119.349 19.2318 117.877 18.8506 116.256 18.4694C113.633 17.8553 109.026 16.8812 109.026 13.0271C109.026 9.85059 112.161 7.5 116.171 7.5C120.735 7.5 123.145 10.5918 123.145 13.3024Z" fill="#A8A8AE"/>
</svg>
