<svg width="143" height="34" viewBox="0 0 143 34" fill="none" xmlns="http://www.w3.org/2000/svg">
<path d="M25.8006 15.6815C25.7205 15.2303 25.6672 14.7791 25.5338 14.3279C25.4804 14.089 25.4271 13.8502 25.347 13.6113C24.3866 10.5856 22.4124 8.17042 19.9046 6.57797C16.3831 4.40162 11.8744 3.87081 7.65919 5.72866C2.51024 7.98463 -0.637822 13.5582 0.109176 19.1052C0.536033 22.2636 2.00335 24.9177 4.08427 26.8552C6.32527 28.9519 9.33994 29.35 11.7143 29.4031C12.3813 29.4031 13.0483 29.2173 13.5818 28.8457C13.6352 28.8192 13.6619 28.7927 13.6885 28.7661C15.1025 27.731 15.9029 26.6694 17.3435 22.5556C17.2101 22.2901 13.4484 22.5821 13.9286 21.7859C14.3288 21.1223 17.0767 20.5119 17.6903 19.9811C18.1972 19.5299 18.7308 16.2919 19.958 16.0265C20.5983 15.8938 19.958 17.9374 18.384 28.2618C22.8126 26.4305 25.934 22.1044 25.934 17.0351C25.934 16.5839 25.8539 16.1327 25.8006 15.6815ZM22.8126 23.803C22.7326 24.148 22.5992 24.5992 22.199 24.6523C22.199 24.6523 22.1456 21.9717 22.0656 20.2465L21.9589 19.0787C21.6921 16.9024 21.532 16.6104 21.3186 16.1061C19.4511 11.5411 16.2764 13.8236 13.7152 17.327C11.7143 20.0607 10.1136 23.511 9.7668 25.0239H4.35106C5.97845 21.6797 9.71344 14.9118 13.7152 11.7269C14.8624 10.798 16.0629 10.161 17.2101 10.0017C22.0122 9.3913 23.4262 14.3014 23.2661 18.5479C23.1594 20.8835 23.1594 22.1309 22.8126 23.803Z" fill="#16754C"/>
<path d="M46.0108 22.9717H37.5647L36.413 25.6823H31.934L39.4203 8.29639H44.1339L51.6629 25.6823H47.1625L46.0321 22.9717H46.0108ZM44.5391 19.5623L41.8091 13.0611L39.0364 19.5623H44.5391Z" fill="black"/>
<path d="M58.2826 21.807H67.4752V25.7034H54.0596V8.29639H58.2826V21.807Z" fill="black"/>
<path d="M85.7989 20.6211C85.7989 23.4587 83.9646 25.6823 79.187 25.6823H70.549V8.29639H78.1419C83.2181 8.29639 84.8177 10.287 84.8177 13.0823C84.8177 14.8823 83.5594 16.1317 83.1754 16.407C84.8817 17.254 85.7989 18.7576 85.7989 20.6211ZM80.808 13.6117C80.808 12.4258 80.0402 11.8752 78.4192 11.8752H74.7933V15.5176H78.4192C80.2534 15.5176 80.808 14.9882 80.808 13.6329V13.6117ZM78.6965 18.7152H74.772V22.0823H78.6965C80.4027 22.0823 81.2559 21.5105 81.2559 20.3882C81.2559 19.1176 80.3814 18.694 78.6965 18.694V18.7152Z" fill="black"/>
<path d="M105.826 16.767C105.826 22.527 102.158 25.9999 97.2737 25.9999C92.3894 25.9999 88.9342 22.527 88.9342 16.767V8.29639H93.1573V16.767C93.1573 20.1129 94.6076 22.1034 97.2737 22.1034C99.9397 22.1034 101.561 20.1129 101.561 16.767V8.29639H105.826V16.767Z" fill="black"/>
<path d="M123.145 13.8024H118.943C118.943 12.9341 117.92 11.7482 116.107 11.7482C114.848 11.7482 113.291 12.32 113.291 13.3153C113.291 14.1624 114.443 14.5012 116.917 15.1365C119.669 15.8565 123.572 16.7671 123.572 20.6C123.572 23.9247 120.628 26 116.533 26C111.052 26 108.748 22.3153 108.748 19.6047H112.95C112.95 19.6047 113.291 22.3576 116.768 22.3576C118.645 22.3576 119.349 21.5741 119.349 20.8329C119.349 19.7318 117.877 19.3506 116.256 18.9694C113.633 18.3553 109.026 17.3812 109.026 13.5271C109.026 10.3506 112.161 8 116.171 8C120.735 8 123.145 11.0918 123.145 13.8024Z" fill="black"/>
</svg>
