<svg width="37" height="36" viewBox="0 0 37 36" fill="none" xmlns="http://www.w3.org/2000/svg">
<rect x="0.5" width="36" height="36" rx="18" fill="#EFFAF6"/>
<path fill-rule="evenodd" clip-rule="evenodd" d="M15 20H20.5C20.776 20 21 19.776 21 19.5C21 19.224 20.776 19 20.5 19H16.5C15.119 19 14 17.881 14 16.5C14 15.12 15.119 14 16.5 14H17.5V12H19.5V14H22V16H16.5C16.224 16 16 16.224 16 16.5C16 16.776 16.224 17 16.5 17H20.5C21.881 17 23 18.12 23 19.5C23 20.881 21.881 22 20.5 22H19.5V24H17.5V22H15V20ZM18.5 26C22.918 26 26.5 22.419 26.5 18C26.5 13.582 22.918 10 18.5 10C14.082 10 10.5 13.582 10.5 18C10.5 22.419 14.082 26 18.5 26ZM18.5 28C12.977 28 8.5 23.523 8.5 18C8.5 12.478 12.977 8 18.5 8C24.023 8 28.5 12.478 28.5 18C28.5 23.523 24.023 28 18.5 28Z" fill="#1C925F"/>
</svg>
