<svg width="16" height="16" viewBox="0 0 16 16" fill="none" xmlns="http://www.w3.org/2000/svg">
    <g clip-path="url(#clip0_17_2193)">
    <path d="M8 9.99454C6.89544 9.99454 6 10.89 6 11.9945V15.9945H10V11.9945C10 10.89 9.10456 9.99454 8 9.99454Z" fill="#82828A"/>
    <path d="M11.3333 11.9948V15.9948H14C15.1046 15.9948 16 15.0994 16 13.9948V7.91414C16.0002 7.5678 15.8656 7.23499 15.6247 6.98614L9.95934 0.861455C8.95972 -0.220108 7.27259 -0.286514 6.19103 0.713111C6.13966 0.760611 6.09016 0.81008 6.04269 0.861455L0.387344 6.98414C0.139156 7.23402 -9.37027e-05 7.57196 4.73072e-08 7.92414V13.9948C4.73072e-08 15.0994 0.895437 15.9948 2 15.9948H4.66666V11.9948C4.67912 10.1769 6.14684 8.69242 7.91894 8.64967C9.75031 8.60549 11.3194 10.1153 11.3333 11.9948Z" fill="#1C925F"/>
    <path d="M8 9.99454C6.89544 9.99454 6 10.89 6 11.9945V15.9945H10V11.9945C10 10.89 9.10456 9.99454 8 9.99454Z" fill="#1C925F"/>
    </g>
    <defs>
    <clipPath id="clip0_17_2193">
    <rect width="16" height="16" fill="white"/>
    </clipPath>
    </defs>
    </svg>
    