<svg viewBox="0 0 960 1080" preserveAspectRatio="none" fill="none" xmlns="http://www.w3.org/2000/svg">
<g clip-path="url(#clip0_361_21063)">
<rect width="960" height="1346" transform="translate(0 -133)" fill="#1C925F"/>
<circle cx="480" cy="419" r="281" fill="url(#paint0_linear_361_21063)" fill-opacity="0.3"/>
<circle cx="480" cy="419" r="222" fill="#0A7146" fill-opacity="0.3"/>
<path d="M640.779 402.425C639.778 396.796 639.112 391.168 637.444 385.54C636.778 382.561 636.111 379.581 635.11 376.602C623.107 338.861 598.432 308.734 567.089 288.87C523.075 261.723 466.723 255.102 414.04 278.276C349.686 306.417 310.34 375.94 319.677 445.132C325.012 484.528 343.351 517.634 369.359 541.802C397.368 567.956 435.047 572.922 464.723 573.584C473.059 573.584 481.395 571.266 488.064 566.631C488.73 566.3 489.064 565.969 489.397 565.638C507.07 552.727 517.073 539.484 535.078 488.17C533.411 484.859 486.396 488.501 492.398 478.569C497.4 470.292 531.744 462.678 539.413 456.057C545.749 450.429 552.417 410.039 567.756 406.728C575.758 405.073 567.756 430.565 548.083 559.348C603.434 536.505 642.446 482.542 642.446 419.309C642.446 413.681 641.446 408.053 640.779 402.425ZM603.434 503.73C602.433 508.033 600.766 513.661 595.764 514.324C595.764 514.324 595.098 480.886 594.097 459.367L592.763 444.801C589.429 417.653 587.428 414.012 584.761 407.722C561.42 350.779 521.741 379.25 489.731 422.95C464.723 457.05 444.716 500.088 440.382 518.958H372.693C393.033 477.245 439.715 392.824 489.731 353.096C504.069 341.509 519.073 333.564 533.411 331.577C593.43 323.963 611.103 385.209 609.102 438.179C607.768 467.313 607.768 482.873 603.434 503.73Z" fill="#005532"/>
<circle cx="142" cy="161" r="13" fill="#B9DDCD" fill-opacity="0.41"/>
<circle cx="112" cy="465" r="11" fill="white"/>
<circle opacity="0.7" cx="188" cy="578" r="14" fill="white"/>
<circle opacity="0.8" cx="184" cy="294" r="7" fill="white"/>
<circle opacity="0.4" cx="304" cy="124" r="7" fill="white"/>
<path opacity="0.4" d="M133 363C133 366.866 129.866 370 126 370C122.134 370 119 366.866 119 363C119 359.134 122.134 356 126 356C129.866 356 133 359.134 133 363Z" fill="white"/>
<circle opacity="0.6" cx="255" cy="217" r="7" fill="white"/>
<circle opacity="0.8" cx="819" cy="588" r="11" fill="white"/>
<circle cx="867" cy="355" r="11" fill="white"/>
<circle cx="766" cy="158" r="9" fill="white"/>
<circle opacity="0.4" cx="753" cy="268" r="7" fill="white"/>
<circle opacity="0.4" cx="807" cy="476" r="11" fill="white"/>
<circle opacity="0.6" cx="851" cy="220" r="7" fill="white"/>
<circle opacity="0.4" cx="661" cy="152" r="7" fill="white"/>
<circle opacity="0.4" cx="470" cy="111" r="7" fill="white"/>
<path d="M537.224 490.756C496.656 637.761 174.373 786.753 -125.47 580.973L238.135 1108C398.427 1096.14 1185.43 774.838 1044.79 800.863C827.892 841 520.536 681.351 550 544C542.032 504.704 560.089 407.901 537.224 490.756Z" fill="url(#paint1_linear_361_21063)"/>
<g clip-path="url(#clip1_361_21063)">
<path d="M547.697 559.247C567.492 429.451 575.571 403.751 567.492 405.419C552.076 408.755 545.354 449.467 539.002 455.151C531.294 461.823 496.698 469.483 491.703 477.823C485.66 487.831 532.959 484.186 534.624 487.522C516.493 539.231 484.107 580.028 466.347 593.063C471.063 595.142 491.07 571.681 490.392 571.99C483.67 576.685 511.659 614.137 503.273 614.137C473.426 613.457 294.015 638.365 265.833 611.986C239.686 587.646 340.387 652.57 334.961 612.846C210.874 620.588 319.503 676.497 319.503 676.497L398.152 663.164L594.298 730.686L571.971 647.682C564.016 701.552 543.633 611.556 547.759 559.247H547.697Z" fill="white"/>
<path d="M489.247 421.945C521.563 377.784 561.681 348.984 585.268 406.585C587.992 412.964 589.973 416.618 593.378 444.056L594.74 458.797C595.731 480.537 596.412 514.355 596.412 514.355C601.488 513.673 603.16 507.975 604.15 503.64C608.546 482.581 608.546 466.849 609.846 437.367C611.889 383.854 593.997 321.917 533.388 329.659C518.901 331.641 503.733 339.693 489.247 351.399C438.729 391.534 391.554 476.883 371 519H439.348C443.743 499.923 463.926 456.444 489.185 422.007L489.247 421.945Z" fill="white"/>
</g>
<path d="M971.09 667.177C891.24 601.252 854.873 741.012 830.735 789.305C797.525 855.75 751.3 809.486 738.951 794.448C718.962 770.109 697.419 746.574 658.585 772.174C630.899 790.426 613.836 852.483 565.804 813.68C513.742 771.621 476.216 790.589 457.565 808.94C389.28 876.125 391.981 783.69 333.265 781.408C278.195 779.267 269.087 830.457 225.684 830.938C181.805 833.538 164.447 785.162 129.152 725.074C93.8568 664.985 27.5757 564.069 -6.28827 583.778C-33.3795 599.545 -75.7534 890.546 -81 954L215.191 948.628L981.5 1128.5L971.09 667.177Z" fill="#B9DDCD"/>
<path d="M-46.0872 760.347C-3.52924 740.521 72.7531 780.318 114 835C145.368 876.585 174.253 950.318 223.144 924.172C289.477 888.699 326.369 874.073 383.907 922.169C413.089 946.561 424.128 988.661 489.146 948.22C559.62 904.386 586.832 933.53 613.754 951.226C723.513 1023.37 705.367 921.541 784.848 919.162C859.394 916.932 857.805 972.769 916.558 973.27C960.462 971.266 955.942 914.153 1023.09 911.648C1090.23 909.143 1137.37 1005.33 1166.42 924.173C1171.63 909.619 1198.06 809.444 1258.75 802.931C1299.93 833.619 1380.14 1053.07 1384 1089L983.059 1083.4L-59 1088.5L-46.0872 760.347Z" fill="#EFFAF6"/>
<path d="M210.688 876.8H217.728L207.528 904H200.808L195.088 886.28L188.688 904H181.888L172.848 876.8H179.848L185.488 894.44L191.688 876.8H198.848L204.368 894.36L210.688 876.8ZM247.379 876.8V904H240.779V893.44H228.819V904H222.259V876.8H228.819V887.36H240.779V876.8H247.379ZM253.47 876.8H274.31V882.88H260.03V887.56H271.95V893.24H260.03V897.92H274.31V904H253.47V876.8ZM292.802 876.8C298.322 876.8 302.482 881.08 302.482 887C302.482 890.92 300.562 894.24 297.642 895.8L303.242 904H295.082L291.002 897.24H286.202V904H279.642V876.8H292.802ZM291.882 882.88H286.202V891.16H291.842C294.082 891.16 295.882 889.28 295.882 887C295.882 884.76 294.082 882.88 291.882 882.88ZM307.923 876.8H328.763V882.88H314.483V887.56H326.403V893.24H314.483V897.92H328.763V904H307.923V876.8ZM367.907 876.8V882.88H358.267V904H351.627V882.88H341.987V876.8H367.907ZM397.496 876.8V904H390.896V893.44H378.936V904H372.376V876.8H378.936V887.36H390.896V876.8H397.496ZM403.587 876.8H424.427V882.88H410.147V887.56H422.067V893.24H410.147V897.92H424.427V904H403.587V876.8ZM472.771 876.8V904H466.171V890.12L459.651 904H452.331L445.811 890.12V904H439.251V876.8H446.531L456.011 896.76L465.451 876.8H472.771ZM491.101 876.32C498.821 876.32 505.141 882.68 505.141 890.4C505.141 898.16 498.821 904.48 491.101 904.48C483.301 904.48 477.061 898.16 477.061 890.4C477.061 882.68 483.301 876.32 491.101 876.32ZM491.101 882.44C486.661 882.44 483.061 886 483.061 890.4C483.061 894.84 486.661 898.4 491.101 898.4C495.461 898.4 499.061 894.84 499.061 890.4C499.061 886 495.461 882.44 491.101 882.44ZM521.486 876.8C530.446 876.76 535.846 882.52 535.846 890.36C535.846 898.28 529.966 904 521.486 904H509.446V876.84L521.486 876.8ZM516.006 882.88V897.92H521.486C526.046 897.92 529.206 894.92 529.206 890.36C529.206 885.48 526.126 882.88 521.486 882.88H516.006ZM540.462 876.8H561.302V882.88H547.022V887.56H558.942V893.24H547.022V897.92H561.302V904H540.462V876.8ZM579.794 876.8C585.314 876.8 589.474 881.08 589.474 887C589.474 890.92 587.554 894.24 584.634 895.8L590.234 904H582.074L577.994 897.24H573.194V904H566.634V876.8H579.794ZM578.874 882.88H573.194V891.16H578.834C581.074 891.16 582.874 889.28 582.874 887C582.874 884.76 581.074 882.88 578.874 882.88ZM621.475 876.8V904H614.875L601.115 887.36V904H594.515V876.8H601.115L614.875 893.4V876.8H621.475ZM657.513 876.8V882.88H643.233V889.12H655.153V895.16H643.233V904H636.673V876.8H657.513ZM669.209 876.8V897.92H683.489V904H662.649V876.8H669.209ZM694.717 876.8V904H688.157V876.8H694.717ZM714.253 876.32C719.493 876.32 723.733 878.68 726.453 882.28L720.773 885.16C719.413 883.44 717.293 882.48 714.173 882.48C709.413 882.48 706.093 885.8 706.093 890.32C706.093 894.64 709.493 898.36 714.253 898.36C717.173 898.36 719.493 897.44 720.933 896.08V893.44H712.653V888.4H726.733V898.48C726.533 898.88 722.253 904.48 714.293 904.48C705.293 904.48 699.493 897.72 699.493 890.4C699.493 882.84 705.693 876.32 714.253 876.32ZM756.832 876.8V904H750.232V893.44H738.272V904H731.712V876.8H738.272V887.36H750.232V876.8H756.832ZM787.243 876.8V882.88H777.603V904H770.963V882.88H761.323V876.8H787.243ZM315.902 949.48C318.542 950.8 319.982 953.16 319.982 956.08C319.982 960.52 317.142 964 309.702 964H296.302V936.8H308.102C315.982 936.8 318.462 939.92 318.462 944.28C318.462 947.08 316.502 949.04 315.902 949.48ZM308.502 948.08C311.342 948.08 312.222 947.24 312.222 945.12C312.222 943.28 311.022 942.4 308.502 942.4H302.862V948.08H308.502ZM312.902 955.72C312.902 953.72 311.542 953.08 308.942 953.08H302.862V958.36H308.942C311.582 958.36 312.902 957.48 312.902 955.72ZM349.463 936.8V950.04C349.463 959.04 343.783 964.48 336.183 964.48C328.463 964.48 323.223 959.04 323.223 950.04V936.8H329.783V950.04C329.783 955.28 332.023 958.4 336.183 958.4C340.263 958.4 342.823 955.28 342.823 950.04V936.8H349.463ZM363.925 936.32C371.005 936.32 374.765 941.16 374.765 945.4H368.245C368.245 944.04 366.645 942.2 363.845 942.2C361.885 942.2 359.485 943.08 359.485 944.64C359.485 945.96 361.285 946.48 365.125 947.48C369.405 948.6 375.445 950.04 375.445 956.04C375.445 961.24 370.885 964.48 364.525 964.48C356.005 964.48 352.445 958.72 352.445 954.48H358.965C358.965 954.48 359.485 958.8 364.885 958.8C367.805 958.8 368.885 957.56 368.885 956.4C368.885 954.68 366.605 954.08 364.085 953.48C360.005 952.52 352.845 951 352.845 944.96C352.845 940 357.725 936.32 363.925 936.32ZM386.807 936.8V964H380.247V936.8H386.807ZM419.463 936.8V964H412.863L399.103 947.36V964H392.503V936.8H399.103L412.863 953.4V936.8H419.463ZM425.169 936.8H446.009V942.88H431.729V947.56H443.649V953.24H431.729V957.92H446.009V964H425.169V936.8ZM461.581 936.32C468.661 936.32 472.421 941.16 472.421 945.4H465.901C465.901 944.04 464.301 942.2 461.501 942.2C459.541 942.2 457.141 943.08 457.141 944.64C457.141 945.96 458.941 946.48 462.781 947.48C467.061 948.6 473.101 950.04 473.101 956.04C473.101 961.24 468.541 964.48 462.181 964.48C453.661 964.48 450.101 958.72 450.101 954.48H456.621C456.621 954.48 457.141 958.8 462.541 958.8C465.461 958.8 466.541 957.56 466.541 956.4C466.541 954.68 464.261 954.08 461.741 953.48C457.661 952.52 450.501 951 450.501 944.96C450.501 940 455.381 936.32 461.581 936.32ZM488.143 936.32C495.223 936.32 498.983 941.16 498.983 945.4H492.463C492.463 944.04 490.863 942.2 488.063 942.2C486.103 942.2 483.703 943.08 483.703 944.64C483.703 945.96 485.503 946.48 489.343 947.48C493.623 948.6 499.663 950.04 499.663 956.04C499.663 961.24 495.103 964.48 488.743 964.48C480.223 964.48 476.663 958.72 476.663 954.48H483.183C483.183 954.48 483.703 958.8 489.103 958.8C492.023 958.8 493.103 957.56 493.103 956.4C493.103 954.68 490.823 954.08 488.303 953.48C484.223 952.52 477.063 951 477.063 944.96C477.063 940 481.943 936.32 488.143 936.32ZM533.558 949.48C536.198 950.8 537.638 953.16 537.638 956.08C537.638 960.52 534.798 964 527.358 964H513.958V936.8H525.758C533.638 936.8 536.118 939.92 536.118 944.28C536.118 947.08 534.158 949.04 533.558 949.48ZM526.158 948.08C528.998 948.08 529.878 947.24 529.878 945.12C529.878 943.28 528.678 942.4 526.158 942.4H520.518V948.08H526.158ZM530.558 955.72C530.558 953.72 529.198 953.08 526.598 953.08H520.518V958.36H526.598C529.238 958.36 530.558 957.48 530.558 955.72ZM542.239 936.8H563.079V942.88H548.799V947.56H560.719V953.24H548.799V957.92H563.079V964H542.239V936.8ZM580.835 936.32C586.075 936.32 590.315 938.68 593.035 942.28L587.355 945.16C585.995 943.44 583.875 942.48 580.755 942.48C575.995 942.48 572.675 945.8 572.675 950.32C572.675 954.64 576.075 958.36 580.835 958.36C583.755 958.36 586.075 957.44 587.515 956.08V953.44H579.235V948.4H593.315V958.48C593.115 958.88 588.835 964.48 580.875 964.48C571.875 964.48 566.075 957.72 566.075 950.4C566.075 942.84 572.275 936.32 580.835 936.32ZM604.854 936.8V964H598.294V936.8H604.854ZM637.51 936.8V964H630.91L617.15 947.36V964H610.55V936.8H617.15L630.91 953.4V936.8H637.51ZM653.456 936.32C660.536 936.32 664.296 941.16 664.296 945.4H657.776C657.776 944.04 656.176 942.2 653.376 942.2C651.416 942.2 649.016 943.08 649.016 944.64C649.016 945.96 650.816 946.48 654.656 947.48C658.936 948.6 664.976 950.04 664.976 956.04C664.976 961.24 660.416 964.48 654.056 964.48C645.536 964.48 641.976 958.72 641.976 954.48H648.496C648.496 954.48 649.016 958.8 654.416 958.8C657.336 958.8 658.416 957.56 658.416 956.4C658.416 954.68 656.136 954.08 653.616 953.48C649.536 952.52 642.376 951 642.376 944.96C642.376 940 647.256 936.32 653.456 936.32Z" fill="#0A7146"/>
</g>
<defs>
<linearGradient id="paint0_linear_361_21063" x1="480" y1="138" x2="480" y2="700" gradientUnits="userSpaceOnUse">
<stop stop-color="#0A7146"/>
<stop offset="1" stop-color="#13D785"/>
</linearGradient>
<linearGradient id="paint1_linear_361_21063" x1="468.264" y1="458" x2="468.264" y2="1108" gradientUnits="userSpaceOnUse">
<stop offset="0.182692" stop-color="white"/>
<stop offset="0.85" stop-color="#1C925F"/>
</linearGradient>
<clipPath id="clip0_361_21063">
<rect width="960" height="1346" fill="white" transform="translate(0 -133)"/>
</clipPath>
<clipPath id="clip1_361_21063">
<rect width="324" height="246" fill="white" transform="translate(317 329)"/>
</clipPath>
</defs>
</svg>
