<svg width="37" height="36" viewBox="0 0 37 36" fill="none" xmlns="http://www.w3.org/2000/svg">
<rect x="0.5" width="36" height="36" rx="18" fill="#EFFAF6"/>
<path d="M22.7857 12V8H24.6905V12H28.5V14H24.6905V18H22.7857V14H18.9762V12H22.7857Z" fill="#1C925F"/>
<path d="M17.0714 10.5C17.0714 10.2239 16.8476 10 16.5714 10H15.6667C15.3905 10 15.1667 9.77614 15.1667 9.5V8.5C15.1667 8.22386 14.9428 8 14.6667 8H13.7619C13.4858 8 13.2619 8.22386 13.2619 8.5V9.5C13.2619 9.77614 13.038 10 12.7619 10H9.45238C8.9264 10 8.5 10.4477 8.5 11V27C8.5 27.5523 8.9264 28 9.45238 28H26.5952C27.1212 28 27.5476 27.5523 27.5476 27V20.5C27.5476 20.2239 27.3238 20 27.0476 20H26.1429C25.8667 20 25.6429 20.2239 25.6429 20.5V25.5C25.6429 25.7761 25.419 26 25.1429 26H10.9048C10.6286 26 10.4048 25.7761 10.4048 25.5V16.5C10.4048 16.2239 10.6286 16 10.9048 16H16.5714C16.8476 16 17.0714 15.7761 17.0714 15.5V10.5Z" fill="#1C925F"/>
<path d="M17.0714 20.5C17.0714 20.2239 16.8476 20 16.5714 20H12.8095C12.5334 20 12.3095 20.2239 12.3095 20.5V23.5C12.3095 23.7761 12.5334 24 12.8095 24H16.5714C16.8476 24 17.0714 23.7761 17.0714 23.5V20.5Z" fill="#1C925F"/>
</svg>
