<svg width="20" height="20" viewBox="0 0 20 20" fill="none" xmlns="http://www.w3.org/2000/svg">
    <path d="M7.77909 9.58525L9.58742 9.58567C11.6585 9.58567 13.3374 11.2646 13.3374 13.3357H7.50324L7.50407 14.169L14.1708 14.1683V13.3357C14.1708 12.4337 13.9056 11.5831 13.4323 10.835L15.8374 10.8357C17.4977 10.8357 18.9311 11.8067 19.6008 13.2118C17.6302 15.8123 14.439 17.5023 10.8374 17.5023C8.53634 17.5023 6.58704 17.0102 5.0038 16.1483L5.00494 8.39483C6.04289 8.5435 6.99269 8.96542 7.77909 9.58525ZM4.17074 15.8357C4.17074 16.2959 3.79764 16.669 3.3374 16.669H1.67074C1.2105 16.669 0.837402 16.2959 0.837402 15.8357V8.33566C0.837402 7.87543 1.2105 7.50234 1.67074 7.50234H3.3374C3.79764 7.50234 4.17074 7.87543 4.17074 8.33566V15.8357ZM15.0041 4.16901C16.3848 4.16901 17.5041 5.28829 17.5041 6.66901C17.5041 8.04971 16.3848 9.169 15.0041 9.169C13.6233 9.169 12.5041 8.04971 12.5041 6.66901C12.5041 5.28829 13.6233 4.16901 15.0041 4.16901ZM9.17075 1.66901C10.5514 1.66901 11.6708 2.78829 11.6708 4.16901C11.6708 5.54971 10.5514 6.66901 9.17075 6.66901C7.79003 6.66901 6.67074 5.54971 6.67074 4.16901C6.67074 2.78829 7.79003 1.66901 9.17075 1.66901Z" fill="#1C925F"/>
    </svg>
     