<svg width="20" height="20" viewBox="0 0 20 20" fill="none" xmlns="http://www.w3.org/2000/svg">
<path fill-rule="evenodd" clip-rule="evenodd" d="M9.16665 4.16667C8.70665 4.16667 8.33331 4.54 8.33331 5C8.33331 5.46 8.70665 5.83333 9.16665 5.83333C9.62665 5.83333 9.99998 5.46 9.99998 5C9.99998 4.54 9.62665 4.16667 9.16665 4.16667ZM9.16665 2.5C10.5475 2.5 11.6666 3.61917 11.6666 5C11.6666 6.38083 10.5475 7.5 9.16665 7.5C7.78581 7.5 6.66665 6.38083 6.66665 5C6.66665 3.61917 7.78581 2.5 9.16665 2.5ZM15 6.66667C14.5391 6.66667 14.1666 7.04 14.1666 7.5C14.1666 7.96 14.5391 8.33333 15 8.33333C15.4608 8.33333 15.8333 7.96 15.8333 7.5C15.8333 7.04 15.4608 6.66667 15 6.66667ZM15 5C16.3808 5 17.5 6.11917 17.5 7.5C17.5 8.88083 16.3808 10 15 10C13.6191 10 12.5 8.88083 12.5 7.5C12.5 6.11917 13.6191 5 15 5ZM2.49998 15.8333H3.33331V10H2.49998V15.8333ZM5.00081 10.8333L4.99998 15.0183L5.03748 15.045C6.53331 16.095 8.48165 16.6667 10.8333 16.6667C13.3366 16.6667 15.6658 15.7033 17.3625 14.0583L17.4733 13.9475L17.3733 13.8642C16.98 13.5558 16.5033 13.3725 16.0041 13.3392L15.8333 13.3333H14.0741C14.1341 13.6017 14.1666 13.88 14.1666 14.1667V15H6.66665V13.3333L12.325 13.3325L12.2966 13.2667C11.9716 12.5883 11.305 12.1367 10.5533 12.0867L10.4166 12.0833H7.97498C7.19248 11.2833 6.12081 10.8325 5.00165 10.8333H5.00081ZM4.16665 8.33333C4.62665 8.33333 4.99998 8.70667 4.99998 9.16667C6.30915 9.165 7.58081 9.605 8.60831 10.4167H10.4166C11.5275 10.4167 12.525 10.9 13.2116 11.6667H15.8333C17.4416 11.6667 18.9058 12.5908 19.5966 14.0425C17.6258 16.6433 14.435 18.3333 10.8333 18.3333C8.50831 18.3333 6.54165 17.8308 4.94998 16.9517C4.83081 17.2817 4.51748 17.5 4.16665 17.5H1.66665C1.20665 17.5 0.833313 17.1267 0.833313 16.6667V9.16667C0.833313 8.70667 1.20665 8.33333 1.66665 8.33333H4.16665Z" fill="#4B4E59"/>
</svg>
