<svg width="53" height="51" viewBox="0 0 53 51" fill="none" xmlns="http://www.w3.org/2000/svg">
<path d="M52.6144 22.8167C52.4511 21.8984 52.3423 20.9802 52.0703 20.0619C51.9615 19.5757 51.8527 19.0896 51.6895 18.6034C49.7309 12.4455 45.705 7.52998 40.5909 4.28898C33.4095 -0.140396 24.2151 -1.22073 15.6192 2.56044C5.11906 7.15187 -1.30069 18.4954 0.22264 29.7849C1.09312 36.2129 4.08537 41.6146 8.32894 45.5578C12.8989 49.8251 19.0467 50.6354 23.8887 50.7434C25.2488 50.7434 26.6089 50.3653 27.697 49.6091C27.8058 49.555 27.8602 49.501 27.9146 49.447C30.7981 47.3403 32.4302 45.1797 35.3681 36.8071C35.096 36.2669 27.425 36.8611 28.4043 35.2406C29.2203 33.8902 34.824 32.6478 36.0753 31.5674C37.109 30.6492 38.1971 24.0591 40.6997 23.5189C42.0054 23.2489 40.6997 27.4082 37.4899 48.4207C46.521 44.6935 52.8864 35.8888 52.8864 25.5716C52.8864 24.6533 52.7232 23.735 52.6144 22.8167ZM46.521 39.3459C46.3578 40.0481 46.0858 40.9664 45.2697 41.0744C45.2697 41.0744 45.1609 35.6187 44.9977 32.1076L44.7801 29.7309C44.236 25.3015 43.9096 24.7073 43.4744 23.681C39.666 14.3901 33.1919 19.0356 27.969 26.1658C23.8887 31.7295 20.6244 38.7517 19.9171 41.8306H8.87298C12.1917 35.0245 19.8083 21.2502 27.969 14.7682C30.3084 12.8776 32.7566 11.5812 35.096 11.2571C44.8889 10.0148 47.7723 20.0079 47.4459 28.6505C47.2283 33.404 47.2283 35.9428 46.521 39.3459Z" fill="#16754C"/>
</svg>
